# xmcd
#
# Track frame offsets:
# 150
# 15140
# 33080
# 47260
# 65412
# 75422
# 90300
# 107815
# 122050
# 139680
# 153560
# 172130
# 184992
# 200237
# 214867
#
# Disc length: 3023 seconds
#
#
# Revision: 0
# Processed by: cddbd v1.5.1PL2 Copyright (c) Steve Scherf et al.
# Submitted via: FreeRIP 2.944 
#
DISCID=c10bcd0f
DTITLE=Varios - Raízes Sertanejas
DYEAR=1900
DGENRE=Country
TTITLE0=Panela Velha
TTITLE1=Boi Soberano
TTITLE2=Meu Velho Pai
TTITLE3=De Igual Pra Igual
TTITLE4=Paloma Blanca
TTITLE5=A Dama de Vermelho
TTITLE6=Saudade de Matão - Beijinho Doce
TTITLE7=Cabra Macho
TTITLE8=O Berrante de Ouro
TTITLE9=Canoeiro
TTITLE10=A Mais Bonita das Noites
TTITLE11=Prazer de Fazendeiro
TTITLE12=Entre Nós Amor Jamais
TTITLE13=No Colo da Noite
TTITLE14=Mula Preta "A Moda da Mula Preta"
EXTD=
EXTT0=
EXTT1=
EXTT2=
EXTT3=
EXTT4=
EXTT5=
EXTT6=
EXTT7=
EXTT8=
EXTT9=
EXTT10=
EXTT11=
EXTT12=
EXTT13=
EXTT14=
PLAYORDER=
